<?xml version="1.0" encoding="UTF-8" standalone="no"?>
<!-- Created with Inkscape (http://www.inkscape.org/) -->

<svg
   width="271.26669mm"
   height="271.26669mm"
   viewBox="0 0 271.26669 271.26669"
   version="1.1"
   id="svg1"
   xml:space="preserve"
   inkscape:version="1.4 (e7c3feb100, 2024-10-09)"
   sodipodi:docname="fore.svg"
   inkscape:export-filename="fore.png"
   inkscape:export-xdpi="96"
   inkscape:export-ydpi="96"
   xmlns:inkscape="http://www.inkscape.org/namespaces/inkscape"
   xmlns:sodipodi="http://sodipodi.sourceforge.net/DTD/sodipodi-0.dtd"
   xmlns:xlink="http://www.w3.org/1999/xlink"
   xmlns="http://www.w3.org/2000/svg"
   xmlns:svg="http://www.w3.org/2000/svg"><sodipodi:namedview
     id="namedview1"
     pagecolor="#ffffff"
     bordercolor="#000000"
     borderopacity="0.25"
     inkscape:showpageshadow="2"
     inkscape:pageopacity="0.0"
     inkscape:pagecheckerboard="0"
     inkscape:deskcolor="#d1d1d1"
     inkscape:document-units="mm"
     inkscape:zoom="1.1350377"
     inkscape:cx="418.04779"
     inkscape:cy="554.60713"
     inkscape:window-width="2880"
     inkscape:window-height="1664"
     inkscape:window-x="0"
     inkscape:window-y="0"
     inkscape:window-maximized="1"
     inkscape:current-layer="g12" /><defs
     id="defs1"><linearGradient
       id="linearGradient3"
       inkscape:collect="always"><stop
         style="stop-color:#cef5f2;stop-opacity:1;"
         offset="0"
         id="stop3" /><stop
         style="stop-color:#9cdce8;stop-opacity:1;"
         offset="1"
         id="stop4" /></linearGradient><linearGradient
       inkscape:collect="always"
       xlink:href="#linearGradient3"
       id="linearGradient25"
       x1="108.49966"
       y1="159.783"
       x2="108.49966"
       y2="199.55936"
       gradientUnits="userSpaceOnUse" /></defs><g
     inkscape:label="图层 1"
     inkscape:groupmode="layer"
     id="layer1"
     transform="translate(27.562538,-14.475021)"><g
       id="g12"
       transform="matrix(1.1759287,0,0,1.1759287,-19.086522,-26.744734)"><path
         id="path23"
         style="display:none;fill:url(#linearGradient25);stroke-width:0.406252"
         d="m 99.382168,160.14933 v 5.2e-4 c -10.731891,5e-5 -19.431838,8.7 -19.431889,19.43189 0.01979,10.25251 10.135265,17.07162 17.175311,17.95388 4.44511,0.55706 7.41192,-0.0373 8.16113,-2.81578 0.61324,-2.27423 -0.79708,-5.32882 -4.61574,-5.35058 -4.070999,-0.0232 -11.076933,-4.39653 -11.078912,-9.78752 3e-5,-5.4069 4.383202,-9.79007 9.7901,-9.7901 5.406912,3e-5 7.552972,4.20207 10.285162,8.56485 2.68551,4.28826 7.36625,5.91861 12.43386,5.99188 l 0.01,7.5029 c 0.002,1.79133 1.80413,2.98929 3.60857,3.0856 0.73632,-0.0439 1.46557,-0.30423 2.0593,-0.83664 5.106,-4.57846 8.70655,-8.4012 11.72642,-11.59154 0.30641,-0.35395 0.61268,-0.70638 0.92036,-1.06918 0.50182,-0.59173 0.76084,-1.50105 0.77359,-2.41484 -0.0128,-0.9138 -0.27177,-1.82311 -0.77359,-2.41484 -0.30768,-0.3628 -0.61395,-0.71523 -0.92036,-1.06919 -3.01987,-3.19033 -6.62042,-7.01306 -11.72642,-11.59154 -0.59373,-0.53239 -1.32298,-0.79267 -2.0593,-0.83664 -1.80444,0.0964 -3.60637,1.29427 -3.60857,3.0856 l -0.0103,7.87756 c -2.26844,-0.5251 -4.16663,-1.58494 -5.55935,-3.71192 -2.50705,-3.8288 -4.66343,-5.90314 -7.46466,-7.57835 -2.80124,-1.67522 -6.21418,-2.62282 -9.694502,-2.63602 z"
         sodipodi:nodetypes="cccsasccscccccscscscccsscc" /><path
         style="fill:#000000;stroke-width:1.10308"
         id="path41"
         d="" /><path
         id="path3"
         style="fill:#000000;fill-opacity:1;stroke:#000000;stroke-width:0.893376;stroke-linecap:round;stroke-linejoin:round;stroke-dasharray:none;paint-order:fill markers stroke"
         d="m 63.773382,130.4732 c 11.43308,6.40334 20.322764,11.51059 34.221185,15.51031 0.897328,-5.89575 6.321243,-13.41724 8.087723,-15.25443 2.70309,-2.81129 9.75871,-7.26749 15.86114,-9.11269 -13.30502,-12.73179 -31.153022,-18.90534 -42.336021,-17.99706 -14.213914,1.15442 -28.65297,6.62638 -35.20829,11.43994 -1.604891,1.17846 11.222401,10.84832 19.374263,15.41393 z"
         sodipodi:nodetypes="scscsss" /><path
         id="path9"
         style="fill:#000000;fill-opacity:1;stroke:#000000;stroke-width:1.54765;stroke-linejoin:round;stroke-dasharray:none;stroke-opacity:1"
         d="m 157.07958,107.30532 c -1.12224,-0.0776 -2.20352,-0.004 -3.21015,0.25304 -9.18223,2.3542 -12.92052,10.95711 -16.70457,13.05779 -2.14968,1.19341 -4.52999,2.60073 -9.51549,6.31299 -1.04223,4.95835 -3.67647,11.73943 -7.40556,15.51688 -3.73192,3.77507 -10.76826,7.85618 -15.78008,9.0514 -6.580604,9.82705 -12.22129,19.15968 -14.997913,22.4033 -4.196096,4.90183 -39.417822,28.95157 -39.417822,28.95157 0,0 -1.459406,0.19418 0.44121,3.9488 1.900615,3.75459 29.330654,-17.35298 40.52367,-19.79466 11.193015,-2.44167 36.215355,-1.62242 49.580185,-10.49022 13.36479,-8.86778 17.53802,-28.89958 20.59845,-35.8082 3.06044,-6.90864 14.84466,-17.01699 14.06889,-22.03679 -0.45364,-2.93552 -10.32514,-10.82306 -18.18082,-11.3659 z"
         sodipodi:nodetypes="ssscccscssssss" /><path
         style="fill:#000000;fill-opacity:1;stroke:none;stroke-width:0.520923;stroke-linecap:round;stroke-linejoin:round;stroke-dasharray:none;paint-order:fill markers stroke"
         d="m 169.28148,120.47409 c 0,0 8.56397,-0.91147 13.50277,-0.22632 7.34294,1.01869 13.1256,6.48736 13.1256,6.48736 0,0 -3.41093,-6.72809 -8.90129,-8.75039 -8.22229,-3.02856 -18.44468,-3.12763 -18.44468,-3.12763 z"
         id="path4"
         sodipodi:nodetypes="cscscc" /><path
         id="path9-7"
         style="fill:#e56b1e;fill-opacity:1;stroke:#e56b1e;stroke-width:1.84975;stroke-linecap:round;stroke-linejoin:round;stroke-opacity:1;paint-order:fill markers stroke"
         d="m 123.61018,125.55724 a 28.460014,28.460014 0 0 0 -14.06927,7.77529 28.460014,28.460014 0 0 0 -7.60765,14.16541 28.460014,28.460014 0 0 0 14.07379,-7.77589 28.460014,28.460014 0 0 0 7.60313,-14.16481 z" /></g></g></svg>
